<svg data-v-0dd9719b="" version="1.0" xmlns="http://www.w3.org/2000/svg" xmlns:xlink="http://www.w3.org/1999/xlink" width="100%" height="100%" viewBox="0 0 340.000000 250.000000" preserveAspectRatio="xMidYMid meet" color-interpolation-filters="sRGB" style="margin: auto;"> <rect data-v-0dd9719b="" x="0" y="0" width="100%" height="100%" fill="#fff" fill-opacity="1" class="background"></rect> <rect data-v-0dd9719b="" x="0" y="0" width="100%" height="100%" fill="url(#watermark)" fill-opacity="1" class="watermarklayer"></rect> <g data-v-0dd9719b="" fill="#333" class="icon-text-wrapper icon-svg-group iconsvg" transform="translate(71.67974090576172,94.9202880859375)"><g class="iconsvg-imagesvg" transform="translate(0,0)"><g><rect fill="#333" fill-opacity="0" stroke-width="2" x="0" y="0" width="60" height="60.159422469544296" class="image-rect"></rect> <svg x="0" y="0" width="60" height="60.159422469544296" filtersec="colorsb9658049945" class="image-svg-svg primary" style="overflow: visible;"><svg xmlns="http://www.w3.org/2000/svg" xlink="http://www.w3.org/1999/xlink" viewBox="0.002691353438422084 0 91.82567596435547 92.06999969482422"><defs><linearGradient id="a6c432602-31be-4041-9ba4-a53675bc25b5" x1="7.12" y1="59.56" x2="63.93" y2="2.75" gradientUnits="userSpaceOnUse"><stop offset="0" stop-color="#e37315"></stop><stop offset="1" stop-color="#ff0"></stop></linearGradient><linearGradient id="d440a23f2-c1c2-4c91-a3ae-009d6b2748ef" x1="19.47" y1="44.95" x2="62.8" y2="1.63" href="#a6c432602-31be-4041-9ba4-a53675bc25b5"></linearGradient><linearGradient id="b1c0f92a3-b7d9-497d-906d-fc4cd6cc4586" x1="76.17" y1="20.22" x2="15.53" y2="80.86" gradientUnits="userSpaceOnUse"><stop offset="0" stop-color="#9f0"></stop><stop offset="1" stop-color="#016737"></stop></linearGradient><linearGradient id="eda636f62-6b7d-43cc-8185-00f7688c127b" x1="12.73" y1="76.76" x2="72.72" y2="16.77" href="#b1c0f92a3-b7d9-497d-906d-fc4cd6cc4586"></linearGradient><linearGradient id="cd3b48e7b-46d5-4e8a-b85a-63adb5fe2534" x1="56.99" y1="92.24" x2="56.99" y2="13.75" gradientUnits="userSpaceOnUse"><stop offset="0" stop-color="#65e0ff"></stop><stop offset="1" stop-color="#039"></stop></linearGradient><linearGradient id="fcd131d05-01d7-4389-890d-5705b1117a53" x1="85.74" y1="16.78" x2="64.52" y2="95.98" href="#cd3b48e7b-46d5-4e8a-b85a-63adb5fe2534"></linearGradient></defs><g fill-rule="evenodd"><path d="M73.49 18.65a51.63 51.63 0 0 1-33.71 19.16c-12.71 1.69-18.65-4.34-16.92-15.89C25.19 6.31 44.14.39 66.27 5.1A45.95 45.95 0 0 0 .48 52.92a46.58 46.58 0 0 0 25.71 7.25 47.76 47.76 0 0 0 47.3-41.52" fill="url(#a6c432602-31be-4041-9ba4-a53675bc25b5)"></path><path d="M73.49 18.65A51.58 51.58 0 0 1 39.78 37.8c-12.71 1.7-18.65-4.33-16.92-15.88C25.19 6.31 44.14.39 66.27 5.1a45.7 45.7 0 0 0-36.62-1.74A27.71 27.71 0 0 0 14 23C9.67 43.74 24.27 53 43.49 47.56c10.79-3.04 22.51-11.49 30-28.91" fill="url(#d440a23f2-c1c2-4c91-a3ae-009d6b2748ef)"></path><path d="M77 21.06A51.6 51.6 0 0 1 26.19 64a51.29 51.29 0 0 1-24.75-6.28 46 46 0 0 0 4.72 11.54 45.55 45.55 0 0 0 9.58 11.66C25.46 83.37 39.6 83.8 52 77.8a47.77 47.77 0 0 0 25-56.74" fill="url(#b1c0f92a3-b7d9-497d-906d-fc4cd6cc4586)"></path><path d="M77 21.06A51.6 51.6 0 0 1 26.19 64a51.29 51.29 0 0 1-24.75-6.28 46 46 0 0 0 4.72 11.54c.48.83 1 1.64 1.5 2.42C32 78.53 73.79 68.41 77 21.06" fill="url(#eda636f62-6b7d-43cc-8185-00f7688c127b)"></path><path d="M78.38 13.75A51.6 51.6 0 0 1 22.1 85.57a46 46 0 0 0 56.28-71.82" fill="url(#cd3b48e7b-46d5-4e8a-b85a-63adb5fe2534)"></path><path d="M49.9 92.07a46 46 0 0 0 29.84-76.9C91.87 29.79 90.8 86.54 49.9 92.07" fill="url(#fcd131d05-01d7-4389-890d-5705b1117a53)"></path><path d="M73.6 17.14a8.57 8.57 0 0 1 8.57-8.57A8.57 8.57 0 0 1 73.6 0 8.57 8.57 0 0 1 65 8.57a8.57 8.57 0 0 1 8.57 8.57" fill="#65e0ff"></path></g></svg></svg> <!----></g></g> <g transform="translate(67,5.907503128051758)"><g data-gra="path-name" fill-rule="" class="tp-name iconsvg-namesvg"><g transform="scale(1)"><g><path d="M14.06-5.63Q13.47-4.04 11.99-2.92 10.52-1.8 8.79-1.8L8.79-1.8Q6.84-1.8 5.57-2.85 4.29-3.91 3.86-5.52 3.42-7.12 3.42-8.9L3.42-8.9Q3.42-10.8 3.95-12.38 4.47-13.96 5.73-14.91 6.99-15.86 8.72-15.86L8.72-15.86Q10.49-15.86 11.83-14.94 13.16-14.01 13.76-12.73L13.76-12.73 15.76-13.24Q14.66-15.61 12.97-16.71 11.29-17.82 8.48-17.82L8.48-17.82Q6.17-17.82 4.42-16.61 2.67-15.4 1.72-13.33 0.77-11.26 0.77-8.74L0.77-8.74Q0.77-6.25 1.7-4.23 2.62-2.21 4.47-1.02 6.33 0.18 8.97 0.18L8.97 0.18Q11.62 0.18 13.45-1.2 15.27-2.57 16.04-5.12L16.04-5.12 14.06-5.63ZM18.87 0.03L20.67-5.43 28.64-5.43 30.55 0.03 33.01 0.03 25.79-17.97 23.14-17.97 16.3 0.03 18.87 0.03ZM24.63-15.76L27.95-7.35 21.32-7.35 24.63-15.76ZM35.61 0Q35.82 0 35.91-0.09 36-0.18 36-0.39L36-0.39 36-15.32 41.09 0 43.25 0 48.34-14.99 48.34 0 50.58 0Q50.78 0 50.87-0.09 50.96-0.18 50.96-0.39L50.96-0.39 50.96-18 47.64-18Q47.03-16.2 45.3-11.39L45.3-11.39Q43.27-5.71 42.27-2.57L42.27-2.57Q41.22-5.99 40.03-9.42 38.85-12.86 37.03-18L37.03-18 33.37-18 33.37 0 35.61 0ZM65.49 0Q65.64 0 65.76-0.12 65.87-0.23 65.87-0.39L65.87-0.39 65.87-2.13 55.64-2.13 55.64-8.25 64.95-8.25Q65.1-8.25 65.22-8.37 65.33-8.48 65.33-8.64L65.33-8.64 65.33-10.36 55.64-10.36 55.59-15.89 65.08-15.89Q65.23-15.89 65.35-16.01 65.46-16.12 65.46-16.28L65.46-16.28 65.46-18 53.02-18 53.02 0 65.49 0ZM79.63 0Q79.78 0 79.9-0.12 80.02-0.23 80.02-0.39L80.02-0.39 80.02-2.03 71.07-2.03 71.07-18 68.45-18 68.45 0 79.63 0ZM95.06 0Q95.21 0 95.33-0.12 95.44-0.23 95.44-0.39L95.44-0.39 95.44-2.03 86.5-2.03 86.5-18 83.87-18 83.87 0 95.06 0ZM104.91 0L106.78 0Q106.94 0 107.05-0.12 107.17-0.23 107.17-0.39L107.17-0.39 107.17-7.71 113.7-18 111.13-18 105.98-9.92 100.95-18 98.27-18 104.91-7.82 104.91 0ZM116.27 0.03L118.07-5.43 126.04-5.43 127.94 0.03 130.41 0.03 123.19-17.97 120.54-17.97 113.7 0.03 116.27 0.03ZM122.03-15.76L125.35-7.35 118.71-7.35 122.03-15.76Z" transform="translate(-0.7699999809265137, 18)"></path></g> <!----> <!----> <!----> <!----> <!----> <!----> <g data-gra="path-name-1" fill="#333" transform="translate(0,21.18000030517578)"><g transform="scale(1.01171)"><path d="M10.18 0Q10.59 0 10.71-0.37L10.71-0.37 16.82-22.53 22.87 0 25.74 0Q26.15 0 26.26-0.41L26.26-0.41 33.12-26.11 30.1-26.11 24.96-4.44 19.21-26.11 14.81-26.11 9.25-4.44 4.29-26.11 0.48-26.11 7.2 0 10.18 0ZM34.88-12.76Q34.88-9.21 36.24-6.3 37.6-3.39 40.14-1.7 42.67 0 46.07 0L46.07 0Q49.54 0 52.07-1.73 54.61-3.47 55.94-6.45 57.26-9.44 57.26-13.06L57.26-13.06Q57.26-16.64 55.95-19.6 54.65-22.57 52.13-24.34 49.61-26.11 46.07-26.11L46.07-26.11Q42.45-26.11 39.93-24.34 37.41-22.57 36.15-19.53 34.88-16.49 34.88-12.76L34.88-12.76ZM38.35-12.61Q38.35-17.12 40.14-20.14 41.93-23.16 46.07-23.16L46.07-23.16Q48.75-23.16 50.53-21.77 52.3-20.37 52.97-18.07 53.64-15.78 53.64-13.06L53.64-13.06Q53.64-10.26 52.97-7.95 52.3-5.63 50.53-4.22 48.75-2.8 46.07-2.8L46.07-2.8Q43.46-2.8 41.63-4.14 39.8-5.48 39.07-7.72 38.35-9.96 38.35-12.61L38.35-12.61ZM59.5-12.76Q59.5-9.21 60.86-6.3 62.22-3.39 64.76-1.7 67.29 0 70.69 0L70.69 0Q74.16 0 76.69-1.73 79.23-3.47 80.56-6.45 81.88-9.44 81.88-13.06L81.88-13.06Q81.88-16.64 80.57-19.6 79.27-22.57 76.75-24.34 74.23-26.11 70.69-26.11L70.69-26.11Q67.07-26.11 64.55-24.34 62.03-22.57 60.77-19.53 59.5-16.49 59.5-12.76L59.5-12.76ZM62.97-12.61Q62.97-17.12 64.76-20.14 66.55-23.16 70.69-23.16L70.69-23.16Q73.37-23.16 75.15-21.77 76.92-20.37 77.59-18.07 78.26-15.78 78.26-13.06L78.26-13.06Q78.26-10.26 77.59-7.95 76.92-5.63 75.15-4.22 73.37-2.8 70.69-2.8L70.69-2.8Q68.08-2.8 66.25-4.14 64.42-5.48 63.69-7.72 62.97-9.96 62.97-12.61L62.97-12.61ZM94 0.26Q97.92 0.26 100.55-1.32 103.18-2.91 104.47-5.71 105.75-8.51 105.75-12.12L105.75-12.12Q105.75-18.61 102.92-22.23 100.08-25.85 93.59-25.85L93.59-25.85 84.86-25.85 84.86 0.26 94 0.26ZM88.59-22.79L93.52-22.79Q102.32-22.79 102.32-12.87L102.32-12.87Q102.32-8.51 100.31-5.65 98.29-2.8 93.63-2.8L93.63-2.8 88.59-2.8 88.59-22.79ZM108.74-7.16Q109.33-3.43 112.15-1.53 114.97 0.37 119.07 0.37L119.07 0.37Q121.53 0.37 123.62-0.69 125.71-1.75 127.16-3.45 128.62-5.15 128.62-7.46L128.62-7.46Q128.62-10.07 127.05-11.58 125.49-13.09 123.64-13.76 121.79-14.44 118.55-15.22L118.55-15.22 117.8-15.44Q115.41-16.04 114.02-16.84 112.62-17.64 112.62-19.29L112.62-19.29Q112.62-21.37 114.33-22.38 116.05-23.39 118.4-23.39L118.4-23.39Q123.92-22.64 125-18.84L125-18.84 127.43-19.58Q127.02-22.79 124.46-24.64 121.91-26.48 118.25-26.48L118.25-26.48Q112.17-26.48 110.66-24.69 109.15-22.9 109.15-19.14L109.15-19.14Q109.15-16.9 110.51-15.5 111.87-14.1 113.49-13.41 115.12-12.72 117.76-11.97L117.76-11.97Q118.25-11.82 118.7-11.79L118.7-11.79Q120.6-11.38 121.92-10.93 123.25-10.48 124.22-9.61 125.19-8.73 125.19-7.31L125.19-7.31Q125.19-5.07 123.32-4.01 121.46-2.95 118.92-2.95L118.92-2.95Q116.46-2.95 114.15-4.33 111.83-5.71 111.16-7.91L111.16-7.91 108.74-7.16Z" transform="translate(-0.48000001907348633, 26.479999542236328)"></path></g></g></g></g> <!----></g></g><defs v-gra="od"></defs></svg>